<svg xmlns="http://www.w3.org/2000/svg" viewBox="0 0 200 200" fill="none">
  <ellipse cx="85" cy="120" rx="28" ry="14" fill="#C4A35A" opacity="0.12"/>
  <path d="M85 120 L85 60" stroke="#C4A35A" stroke-width="2.5" stroke-linecap="round"/>
  <path d="M67 70 C67 52 103 52 103 70" fill="#C4A35A" opacity="0.55"/>
  <ellipse cx="76" cy="63" rx="8" ry="5" fill="#D4B86A" opacity="0.5"/>
  <ellipse cx="90" cy="58" rx="10" ry="6" fill="#C4A35A" opacity="0.45"/>
  <ellipse cx="100" cy="63" rx="7" ry="4" fill="#D4B86A" opacity="0.4"/>
  <ellipse cx="130" cy="110" rx="22" ry="11" fill="#C4A35A" opacity="0.1"/>
  <path d="M130 110 L130 65" stroke="#C4A35A" stroke-width="2" stroke-linecap="round"/>
  <path d="M116 72 C116 58 144 58 144 72" fill="#C4A35A" opacity="0.45"/>
  <ellipse cx="126" cy="67" rx="7" ry="4" fill="#D4B86A" opacity="0.4"/>
  <ellipse cx="138" cy="67" rx="6" ry="3.5" fill="#C4A35A" opacity="0.35"/>
  <path d="M55 145 C55 130 65 120 80 120 C95 120 100 130 100 145" fill="none" stroke="#C4A35A" stroke-width="0.8" opacity="0.2"/>
  <path d="M110 140 C110 125 120 118 135 118 C150 118 155 125 155 140" fill="none" stroke="#C4A35A" stroke-width="0.8" opacity="0.2"/>
  <path d="M60 170 L140 170" stroke="#C4A35A" stroke-width="0.5" opacity="0.15"/>
  <text x="100" y="182" text-anchor="middle" font-family="Figtree, sans-serif" font-size="7" font-weight="600" fill="#C4A35A" letter-spacing="0.5">WILD FORAGED</text>
</svg>
